<?xml version="1.0" encoding="UTF-8" standalone="no"?>
<!DOCTYPE svg PUBLIC "-//W3C//DTD SVG 1.1//EN"
 "http://www.w3.org/Graphics/SVG/1.1/DTD/svg11.dtd">
<!-- Generated by graphviz version 2.44.1 (20200629.0846)
 -->
<!-- Title: bijection Pages: 1 -->
<svg width="576pt" height="187pt"
 viewBox="0.00 0.00 576.00 187.20" xmlns="http://www.w3.org/2000/svg" xmlns:xlink="http://www.w3.org/1999/xlink">
<g id="graph0" class="graph" transform="scale(0.6 0.6) rotate(0) translate(4 308)">
<title>bijection</title>
<polygon fill="white" stroke="transparent" points="-4,4 -4,-308 956,-308 956,4 -4,4"/>
<g id="clust1" class="cluster">
<title>cluster_source</title>
<polygon fill="lightblue" stroke="transparent" points="8,-188 8,-296 944,-296 944,-188 8,-188"/>
</g>
<g id="clust2" class="cluster">
<title>cluster_target</title>
<polygon fill="lightblue" stroke="transparent" points="8,-8 8,-116 944,-116 944,-8 8,-8"/>
</g>
<!-- a9 -->
<g id="node1" class="node">
<title>a9</title>
<ellipse fill="#efefd7" stroke="transparent" cx="881" cy="-242" rx="27" ry="18"/>
<text text-anchor="middle" x="881" y="-238.3" font-family="Times,serif" font-size="14.00">9</text>
</g>
<!-- b9 -->
<g id="node11" class="node">
<title>b9</title>
<ellipse fill="#efefd7" stroke="transparent" cx="881" cy="-62" rx="27" ry="18"/>
<text text-anchor="middle" x="881" y="-58.3" font-family="Times,serif" font-size="14.00">9</text>
</g>
<!-- a9&#45;&gt;b9 -->
<!-- b7 -->
<g id="node13" class="node">
<title>b7</title>
<ellipse fill="#efefd7" stroke="transparent" cx="701" cy="-62" rx="27" ry="18"/>
<text text-anchor="middle" x="701" y="-58.3" font-family="Times,serif" font-size="14.00">7</text>
</g>
<!-- a9&#45;&gt;b7 -->
<g id="edge19" class="edge">
<title>a9&#45;&gt;b7</title>
<path fill="none" stroke="gray" d="M866.57,-226.73C835.11,-195.62 760.15,-121.49 722.85,-84.61"/>
<polygon fill="gray" stroke="gray" points="725.07,-81.88 715.49,-77.33 720.14,-86.85 725.07,-81.88"/>
</g>
<!-- a8 -->
<g id="node2" class="node">
<title>a8</title>
<ellipse fill="#efefd7" stroke="transparent" cx="791" cy="-242" rx="27" ry="18"/>
<text text-anchor="middle" x="791" y="-238.3" font-family="Times,serif" font-size="14.00">8</text>
</g>
<!-- a8&#45;&gt;b9 -->
<g id="edge18" class="edge">
<title>a8&#45;&gt;b9</title>
<path fill="none" stroke="gray" d="M799.31,-224.57C815.04,-193.45 849.31,-125.67 868.08,-88.55"/>
<polygon fill="gray" stroke="gray" points="871.33,-89.89 872.71,-79.39 865.08,-86.73 871.33,-89.89"/>
</g>
<!-- b8 -->
<g id="node12" class="node">
<title>b8</title>
<ellipse fill="#efefd7" stroke="transparent" cx="791" cy="-62" rx="27" ry="18"/>
<text text-anchor="middle" x="791" y="-58.3" font-family="Times,serif" font-size="14.00">8</text>
</g>
<!-- a8&#45;&gt;b8 -->
<!-- a7 -->
<g id="node3" class="node">
<title>a7</title>
<ellipse fill="#efefd7" stroke="transparent" cx="701" cy="-242" rx="27" ry="18"/>
<text text-anchor="middle" x="701" y="-238.3" font-family="Times,serif" font-size="14.00">7</text>
</g>
<!-- a7&#45;&gt;b7 -->
<!-- b2 -->
<g id="node18" class="node">
<title>b2</title>
<ellipse fill="#efefd7" stroke="transparent" cx="251" cy="-62" rx="27" ry="18"/>
<text text-anchor="middle" x="251" y="-58.3" font-family="Times,serif" font-size="14.00">2</text>
</g>
<!-- a7&#45;&gt;b2 -->
<g id="edge17" class="edge">
<title>a7&#45;&gt;b2</title>
<path fill="none" stroke="gray" d="M678.38,-232.05C604.4,-202.79 369.5,-109.87 283.2,-75.74"/>
<polygon fill="gray" stroke="gray" points="284.26,-72.39 273.67,-71.97 281.68,-78.9 284.26,-72.39"/>
</g>
<!-- a6 -->
<g id="node4" class="node">
<title>a6</title>
<ellipse fill="#efefd7" stroke="transparent" cx="611" cy="-242" rx="27" ry="18"/>
<text text-anchor="middle" x="611" y="-238.3" font-family="Times,serif" font-size="14.00">6</text>
</g>
<!-- b6 -->
<g id="node14" class="node">
<title>b6</title>
<ellipse fill="#efefd7" stroke="transparent" cx="611" cy="-62" rx="27" ry="18"/>
<text text-anchor="middle" x="611" y="-58.3" font-family="Times,serif" font-size="14.00">6</text>
</g>
<!-- a6&#45;&gt;b6 -->
<!-- b3 -->
<g id="node17" class="node">
<title>b3</title>
<ellipse fill="#efefd7" stroke="transparent" cx="341" cy="-62" rx="27" ry="18"/>
<text text-anchor="middle" x="341" y="-58.3" font-family="Times,serif" font-size="14.00">3</text>
</g>
<!-- a6&#45;&gt;b3 -->
<g id="edge16" class="edge">
<title>a6&#45;&gt;b3</title>
<path fill="none" stroke="gray" d="M592.44,-228.77C545.72,-197.96 423.05,-117.09 368.19,-80.93"/>
<polygon fill="gray" stroke="gray" points="369.96,-77.9 359.69,-75.32 366.11,-83.75 369.96,-77.9"/>
</g>
<!-- a5 -->
<g id="node5" class="node">
<title>a5</title>
<ellipse fill="#efefd7" stroke="transparent" cx="521" cy="-242" rx="27" ry="18"/>
<text text-anchor="middle" x="521" y="-238.3" font-family="Times,serif" font-size="14.00">5</text>
</g>
<!-- a5&#45;&gt;b6 -->
<g id="edge15" class="edge">
<title>a5&#45;&gt;b6</title>
<path fill="none" stroke="gray" d="M529.31,-224.57C545.04,-193.45 579.31,-125.67 598.08,-88.55"/>
<polygon fill="gray" stroke="gray" points="601.33,-89.89 602.71,-79.39 595.08,-86.73 601.33,-89.89"/>
</g>
<!-- b5 -->
<g id="node15" class="node">
<title>b5</title>
<ellipse fill="#efefd7" stroke="transparent" cx="521" cy="-62" rx="27" ry="18"/>
<text text-anchor="middle" x="521" y="-58.3" font-family="Times,serif" font-size="14.00">5</text>
</g>
<!-- a5&#45;&gt;b5 -->
<!-- a4 -->
<g id="node6" class="node">
<title>a4</title>
<ellipse fill="#efefd7" stroke="transparent" cx="431" cy="-242" rx="27" ry="18"/>
<text text-anchor="middle" x="431" y="-238.3" font-family="Times,serif" font-size="14.00">4</text>
</g>
<!-- b4 -->
<g id="node16" class="node">
<title>b4</title>
<ellipse fill="#efefd7" stroke="transparent" cx="431" cy="-62" rx="27" ry="18"/>
<text text-anchor="middle" x="431" y="-58.3" font-family="Times,serif" font-size="14.00">4</text>
</g>
<!-- a4&#45;&gt;b4 -->
<!-- b1 -->
<g id="node19" class="node">
<title>b1</title>
<ellipse fill="#efefd7" stroke="transparent" cx="161" cy="-62" rx="27" ry="18"/>
<text text-anchor="middle" x="161" y="-58.3" font-family="Times,serif" font-size="14.00">1</text>
</g>
<!-- a4&#45;&gt;b1 -->
<g id="edge14" class="edge">
<title>a4&#45;&gt;b1</title>
<path fill="none" stroke="gray" d="M412.44,-228.77C365.72,-197.96 243.05,-117.09 188.19,-80.93"/>
<polygon fill="gray" stroke="gray" points="189.96,-77.9 179.69,-75.32 186.11,-83.75 189.96,-77.9"/>
</g>
<!-- a3 -->
<g id="node7" class="node">
<title>a3</title>
<ellipse fill="#efefd7" stroke="transparent" cx="341" cy="-242" rx="27" ry="18"/>
<text text-anchor="middle" x="341" y="-238.3" font-family="Times,serif" font-size="14.00">3</text>
</g>
<!-- a3&#45;&gt;b4 -->
<g id="edge13" class="edge">
<title>a3&#45;&gt;b4</title>
<path fill="none" stroke="gray" d="M349.31,-224.57C365.04,-193.45 399.31,-125.67 418.08,-88.55"/>
<polygon fill="gray" stroke="gray" points="421.33,-89.89 422.71,-79.39 415.08,-86.73 421.33,-89.89"/>
</g>
<!-- a3&#45;&gt;b3 -->
<!-- a2 -->
<g id="node8" class="node">
<title>a2</title>
<ellipse fill="#efefd7" stroke="transparent" cx="251" cy="-242" rx="27" ry="18"/>
<text text-anchor="middle" x="251" y="-238.3" font-family="Times,serif" font-size="14.00">2</text>
</g>
<!-- a2&#45;&gt;b8 -->
<g id="edge12" class="edge">
<title>a2&#45;&gt;b8</title>
<path fill="none" stroke="gray" d="M274.9,-233.12C361.33,-204.63 657.83,-106.9 757.79,-73.95"/>
<polygon fill="gray" stroke="gray" points="758.97,-77.24 767.38,-70.79 756.78,-70.59 758.97,-77.24"/>
</g>
<!-- a2&#45;&gt;b2 -->
<!-- a1 -->
<g id="node9" class="node">
<title>a1</title>
<ellipse fill="#efefd7" stroke="transparent" cx="161" cy="-242" rx="27" ry="18"/>
<text text-anchor="middle" x="161" y="-238.3" font-family="Times,serif" font-size="14.00">1</text>
</g>
<!-- a1&#45;&gt;b5 -->
<g id="edge11" class="edge">
<title>a1&#45;&gt;b5</title>
<path fill="none" stroke="gray" d="M182.18,-230.53C243.07,-200.42 418.82,-113.52 490.26,-78.2"/>
<polygon fill="gray" stroke="gray" points="492.21,-81.14 499.62,-73.57 489.11,-74.86 492.21,-81.14"/>
</g>
<!-- a1&#45;&gt;b1 -->
<!-- a0 -->
<g id="node10" class="node">
<title>a0</title>
<ellipse fill="#efefd7" stroke="transparent" cx="71" cy="-242" rx="27" ry="18"/>
<text text-anchor="middle" x="71" y="-238.3" font-family="Times,serif" font-size="14.00">0</text>
</g>
<!-- b0 -->
<g id="node20" class="node">
<title>b0</title>
<ellipse fill="#efefd7" stroke="transparent" cx="71" cy="-62" rx="27" ry="18"/>
<text text-anchor="middle" x="71" y="-58.3" font-family="Times,serif" font-size="14.00">0</text>
</g>
<!-- a0&#45;&gt;b0 -->
<g id="edge10" class="edge">
<title>a0&#45;&gt;b0</title>
<path fill="none" stroke="gray" d="M71,-223.93C71,-192.97 71,-127.3 71,-90.13"/>
<polygon fill="gray" stroke="gray" points="74.5,-90.02 71,-80.02 67.5,-90.02 74.5,-90.02"/>
</g>
</g>
</svg>
